<svg width="106" height="104" viewBox="0 0 106 104" fill="none" xmlns="http://www.w3.org/2000/svg">
<path d="M17.6446 74.8936C8.59645 77.6081 3 81.3581 3 85.5001C3 93.7843 25.3857 100.5 53 100.5C80.6142 100.5 103 93.7843 103 85.5001C103 81.3581 97.4035 77.6081 88.3552 74.8936" stroke="white" stroke-opacity="0.8" stroke-width="6" stroke-linecap="round" stroke-linejoin="round"/>
<path d="M53 80.5C53 80.5 85.5 59.26 85.5 34.7045C85.5 17.1946 70.9492 3 53 3C35.0507 3 20.5 17.1946 20.5 34.7045C20.5 59.26 53 80.5 53 80.5Z" fill="#E13737" stroke="white" stroke-opacity="0.8" stroke-width="6" stroke-linejoin="round"/>
<path d="M53 48C59.9035 48 65.5 42.4035 65.5 35.5C65.5 28.5965 59.9035 23 53 23C46.0965 23 40.5 28.5965 40.5 35.5C40.5 42.4035 46.0965 48 53 48Z" fill="#881010" stroke="#F5F5F5" stroke-width="6" stroke-linejoin="round"/>
</svg>
